<svg width="48" height="48" viewBox="0 0 48 48" fill="none" xmlns="http://www.w3.org/2000/svg">
  <path d="M35.9 24.8c0-5.2 4.2-7.7 4.4-7.9-2.4-3.5-6.1-4-7.4-4-3.1-.3-6.1 1.8-7.7 1.8-1.6 0-4.1-1.8-6.7-1.7-3.5.1-6.7 2-8.5 5.1-3.6 6.3-.9 15.6 2.6 20.7 1.7 2.5 3.8 5.3 6.5 5.2 2.6-.1 3.6-1.7 6.7-1.7 3.1 0 4 1.7 6.7 1.6 2.8-.1 4.6-2.5 6.3-5 2-2.9 2.8-5.7 2.8-5.8-.1 0-5.4-2.1-5.4-8.3z" fill="#000"/>
  <path d="M31.1 11.6c1.4-1.7 2.4-4.1 2.1-6.5-2.1.1-4.6 1.4-6.1 3.1-1.3 1.5-2.5 3.9-2.2 6.2 2.3.2 4.7-1.2 6.2-2.8z" fill="#000"/>
</svg>