<svg width="150" height="150" viewBox="0 0 150 150" fill="none" xmlns="http://www.w3.org/2000/svg">
<path d="M113.619 122.207C113.619 125.831 96.2 128.77 74.7127 128.77C53.2254 128.77 35.8065 125.831 35.8065 122.207C35.8065 118.583 53.2254 115.645 74.7127 115.645C96.2 115.645 113.619 118.583 113.619 122.207Z" fill="black" fill-opacity="0.25"/>
<path fill-rule="evenodd" clip-rule="evenodd" d="M48.3451 91.3488C53.2565 95.9903 61.0881 99.88 71.9281 103.093L72.0793 103.137C72.6535 103.307 73.3178 103.2 73.9023 102.843L74.058 102.748C93.9156 90.6221 103.982 78.4621 103.982 66.5978V32.7472C103.982 32.1852 103.771 31.7061 103.421 31.377L108.538 36.0516C108.888 36.3807 109.099 36.8598 109.099 37.4218V71.2724C109.099 83.1367 99.0326 95.2968 79.175 107.423L79.0194 107.518C78.4349 107.875 77.7706 107.982 77.1964 107.812L77.0451 107.767C66.2051 104.555 58.3735 100.665 53.4621 96.0234L48.3451 91.3488Z" fill="#F7931B"/>
<path d="M108.768 35.8053L108.771 35.8086L108.848 35.8851C109.223 36.277 109.438 36.8151 109.438 37.4213V71.2718C109.438 83.3274 99.2208 95.574 79.353 107.706V107.707L79.1976 107.801C78.544 108.201 77.78 108.333 77.0991 108.132V108.131L76.9479 108.087C66.0899 104.869 58.2001 100.961 53.232 96.2679L48.7808 92.2018C48.552 91.9992 48.3284 91.7954 48.1108 91.5897L48.5753 91.1027L49.2519 91.7208C54.1392 96.0411 61.6923 99.7092 72.0246 102.772H72.025L72.1763 102.816C72.6438 102.954 73.2088 102.873 73.7243 102.558L73.8797 102.463C93.7271 90.3434 103.643 78.2699 103.643 66.5969V32.7464C103.643 32.269 103.466 31.8797 103.187 31.6184L103.651 31.1309L108.768 35.8053ZM103.421 31.3762C103.771 31.7054 103.982 32.1845 103.982 32.7464V66.5969C103.982 78.4612 93.9155 90.6212 74.0579 102.747L73.9024 102.842C73.3179 103.199 72.6536 103.306 72.0794 103.137L71.9282 103.092C61.5827 100.026 53.9773 96.3432 49.0355 91.9788L53.4622 96.0225C58.3735 100.664 66.2052 104.554 77.0452 107.766L77.1964 107.811C77.7706 107.981 78.4349 107.874 79.0194 107.517L79.1749 107.422C99.0325 95.2962 109.099 83.1361 109.099 71.2718V37.4213C109.099 36.8593 108.888 36.3798 108.538 36.0507L103.421 31.3762Z" fill="#222222"/>
<path fill-rule="evenodd" clip-rule="evenodd" d="M48.3455 91.3488C53.2569 95.9903 61.0885 99.88 71.9285 103.093L72.0797 103.137C72.6539 103.307 73.3182 103.2 73.9027 102.843L74.0584 102.748C93.916 90.6221 103.982 78.4621 103.982 66.5978V32.7472C103.982 32.1852 103.772 31.7061 103.421 31.377L108.538 36.0516C108.889 36.3807 109.1 36.8598 109.1 37.4218V71.2724C109.1 83.1367 99.033 95.2968 79.1754 107.423L79.0197 107.518C78.4352 107.875 77.7709 107.982 77.1967 107.812L77.0455 107.767C66.2055 104.555 58.3739 100.665 53.4625 96.0234L48.3455 91.3488Z" fill="#F7931B"/>
<mask id="mask0_6054_127315" style="mask-type:alpha" maskUnits="userSpaceOnUse" x="48" y="31" width="62" height="77">
<path fill-rule="evenodd" clip-rule="evenodd" d="M48.3459 91.3488C53.2573 95.9903 61.0889 99.88 71.9289 103.093L72.0801 103.137C72.6543 103.307 73.3186 103.2 73.9031 102.843L74.0588 102.748C93.9164 90.6221 103.983 78.4621 103.983 66.5978V32.7472C103.983 32.1852 103.772 31.7061 103.422 31.377L108.539 36.0516C108.889 36.3807 109.1 36.8598 109.1 37.4218V71.2724C109.1 83.1367 99.0334 95.2968 79.1758 107.423L79.0201 107.518C78.4356 107.875 77.7713 107.982 77.1971 107.812L77.0459 107.767C66.2059 104.555 58.3743 100.665 53.4629 96.0234L48.3459 91.3488Z" fill="#F7931B"/>
</mask>
<g mask="url(#mask0_6054_127315)">
<path d="M100.071 128.947L100.2 128.804L25.0917 61.511L24.9633 61.6543L100.071 128.947Z" fill="#222222"/>
<path d="M98.6198 128.953L98.7482 128.81L23.6401 61.5169L23.5117 61.6602L98.6198 128.953Z" fill="#222222"/>
<path d="M97.1682 128.959L97.2966 128.816L22.1885 61.5227L22.0601 61.666L97.1682 128.959Z" fill="#222222"/>
<path d="M95.7166 128.965L95.845 128.822L20.7369 61.5286L20.6085 61.6719L95.7166 128.965Z" fill="#222222"/>
<path d="M89.4224 128.022L89.5508 127.878L14.4427 60.5852L14.3144 60.7285L89.4224 128.022Z" fill="#222222"/>
<path d="M90.3901 128.018L90.5185 127.874L15.4105 60.5813L15.2821 60.7246L90.3901 128.018Z" fill="#222222"/>
<path d="M91.3579 128.014L91.4863 127.87L16.3782 60.5774L16.2498 60.7207L91.3579 128.014Z" fill="#222222"/>
<path d="M92.8095 128.008L92.9378 127.865L17.8298 60.5716L17.7014 60.7148L92.8095 128.008Z" fill="#222222"/>
</g>
<path d="M103.982 66.5978C103.982 78.4621 93.916 90.6221 74.0584 102.748L73.7903 103.55C73.6892 103.801 73.7234 103.897 73.7903 104.034L77.6613 107.518L77.9032 107.663C78.2501 107.791 78.5014 107.764 79.0197 107.518L79.1754 107.423C99.033 95.2967 109.1 83.1367 109.1 71.2724V37.4218C109.1 36.8598 108.889 36.3807 108.538 36.0516L103.421 31.377C103.772 31.7061 103.982 32.1852 103.982 32.7472V66.5978Z" fill="#B7690C"/>
<mask id="mask1_6054_127315" style="mask-type:alpha" maskUnits="userSpaceOnUse" x="73" y="31" width="37" height="77">
<path d="M103.982 66.5978C103.982 78.4621 93.9157 90.6221 74.0582 102.748L73.7901 103.55C73.689 103.801 73.7232 103.897 73.7901 104.034L77.6611 107.518L77.903 107.663C78.2499 107.791 78.5012 107.764 79.0195 107.518L79.1752 107.423C99.0327 95.2967 109.099 83.1367 109.099 71.2724V37.4218C109.099 36.8598 108.888 36.3807 108.538 36.0516L103.421 31.377C103.771 31.7061 103.982 32.1852 103.982 32.7472V66.5978Z" fill="#B7690C"/>
</mask>
<g mask="url(#mask1_6054_127315)">
<path d="M137.798 103.009L137.638 103.188L62.2223 36.2402L62.3818 36.0605L137.798 103.009Z" fill="#222222"/>
<path d="M144.499 94.0968L144.34 94.2764L68.9242 27.3281L69.0836 27.1484L144.499 94.0968Z" fill="#222222"/>
<path d="M149.009 87.5206L148.849 87.7002L73.4333 20.7519L73.5927 20.5723L149.009 87.5206Z" fill="#222222"/>
<path d="M139.406 100.657L139.247 100.837L63.8309 33.8886L63.9904 33.709L139.406 100.657Z" fill="#222222"/>
<path d="M146.108 91.7491L145.949 91.9287L70.5328 24.9804L70.6923 24.8008L146.108 91.7491Z" fill="#222222"/>
<path d="M150.617 85.171L150.458 85.3506L75.0419 18.4023L75.2013 18.2227L150.617 85.171Z" fill="#222222"/>
<path d="M155.819 83.796L155.66 83.9756L80.2439 17.0273L80.4034 16.8477L155.819 83.796Z" fill="#222222"/>
<path d="M122.336 120.608L122.177 120.788L46.7608 53.8398L46.9203 53.6602L122.336 120.608Z" fill="#222222"/>
<path d="M124.88 118.439L124.721 118.618L49.3049 51.6699L49.4644 51.4902L124.88 118.439Z" fill="#222222"/>
<path d="M126.902 116.343L126.743 116.522L51.3271 49.5742L51.4866 49.3945L126.902 116.343Z" fill="#222222"/>
<path d="M128.925 114.249L128.765 114.429L53.3493 47.4804L53.5087 47.3008L128.925 114.249Z" fill="#222222"/>
<path d="M160.936 78.2667L160.777 78.4463L85.3608 11.498L85.5203 11.3184L160.936 78.2667Z" fill="#222222"/>
<path d="M157.949 78.003L157.79 78.1826L82.3738 11.2343L82.5332 11.0547L157.949 78.003Z" fill="#222222"/>
<path d="M165.123 71.3839L164.964 71.5635L89.548 4.61518L89.7075 4.43555L165.123 71.3839Z" fill="#222222"/>
<path d="M164.432 71.9718L164.273 72.1514L88.8569 5.20307L89.0164 5.02344L164.432 71.9718Z" fill="#222222"/>
<path d="M163.789 72.9112L163.63 73.0908L88.214 6.14252L88.3735 5.96289L163.789 72.9112Z" fill="#222222"/>
<path d="M141.805 99.1378L141.646 99.3174L66.2298 32.3691L66.3892 32.1895L141.805 99.1378Z" fill="#222222"/>
<path d="M148.507 90.2257L148.348 90.4053L72.9317 23.457L73.0912 23.2773L148.507 90.2257Z" fill="#222222"/>
<path d="M153.015 83.6495L152.855 83.8291L77.4393 16.8808L77.5988 16.7012L153.015 83.6495Z" fill="#222222"/>
<path d="M158.722 82.3448L158.563 82.5244L83.1472 15.5761L83.3066 15.3965L158.722 82.3448Z" fill="#222222"/>
<path d="M159.206 81.378L159.046 81.5576L83.6306 14.6093L83.7901 14.4297L159.206 81.378Z" fill="#222222"/>
<path d="M157.271 82.8292L157.112 83.0088L81.6957 16.0605L81.8551 15.8809L157.271 82.8292Z" fill="#222222"/>
<path d="M130.12 111.644L129.96 111.823L54.5443 44.8749L54.7038 44.6953L130.12 111.644Z" fill="#222222"/>
<path d="M132.143 109.548L131.984 109.728L56.5679 42.7792L56.7274 42.5996L132.143 109.548Z" fill="#222222"/>
<path d="M133.752 107.198L133.592 107.378L58.1765 40.4296L58.336 40.25L133.752 107.198Z" fill="#222222"/>
<path d="M135.774 105.103L135.615 105.282L60.1987 38.3339L60.3582 38.1543L135.774 105.103Z" fill="#222222"/>
<path d="M142.477 96.1944L142.318 96.374L66.9021 29.4257L67.0615 29.2461L142.477 96.1944Z" fill="#222222"/>
<path d="M160.415 71.6397L160.256 71.8194L84.8399 4.87104L84.9993 4.69141L160.415 71.6397Z" fill="#222222"/>
<path d="M160.433 73.5186L160.273 73.6983L84.8575 6.74994L85.017 6.57031L160.433 73.5186Z" fill="#222222"/>
<path d="M157.365 72.9171L157.205 73.0967L81.7893 6.14838L81.9488 5.96875L157.365 72.9171Z" fill="#222222"/>
<path d="M118.401 133.816L118.56 133.636L43.1443 66.6876L42.9848 66.8672L118.401 133.816Z" fill="#222222"/>
<path d="M116.95 135.267L117.11 135.087L41.6938 68.1387L41.5343 68.3184L116.95 135.267Z" fill="#222222"/>
<path d="M114.32 141.282L114.479 141.103L39.0635 74.1544L38.904 74.334L114.32 141.282Z" fill="#222222"/>
<path d="M119.496 123.751L119.655 123.571L44.2392 56.6231L44.0797 56.8027L119.496 123.751Z" fill="#222222"/>
<path d="M117.645 126.532L117.804 126.353L42.3884 59.4044L42.2289 59.584L117.645 126.532Z" fill="#222222"/>
<path d="M115.803 128.79L115.963 128.61L40.5468 61.6622L40.3873 61.8418L115.803 128.79Z" fill="#222222"/>
<path d="M109.999 147.048L110.159 146.868L34.743 79.92L34.5835 80.0996L109.999 147.048Z" fill="#222222"/>
<path d="M109.383 144.112L109.542 143.933L34.1261 76.9844L33.9667 77.1641L109.383 144.112Z" fill="#222222"/>
<path d="M103.661 152.021L103.82 151.841L28.4043 84.8926L28.2449 85.0723L103.661 152.021Z" fill="#222222"/>
<path d="M104.162 151.265L104.321 151.085L28.9054 84.1368L28.7459 84.3164L104.162 151.265Z" fill="#222222"/>
<path d="M105.02 150.515L105.179 150.335L29.7636 83.3868L29.6041 83.5664L105.02 150.515Z" fill="#222222"/>
<path d="M113.833 139.376L113.994 139.197L39.0037 71.7725L38.8431 71.9512L113.833 139.376Z" fill="#222222"/>
<path d="M115.014 138.169L115.174 137.989L39.7578 71.0411L39.5984 71.2207L115.014 138.169Z" fill="#222222"/>
<path d="M116.465 137.202L116.625 137.023L41.2089 70.0743L41.0495 70.2539L116.465 137.202Z" fill="#222222"/>
<path d="M112.902 144.89L113.061 144.71L37.6454 77.7618L37.486 77.9414L112.902 144.89Z" fill="#222222"/>
<path d="M113.571 142.985L113.73 142.806L38.3141 75.8575L38.1547 76.0371L113.571 142.985Z" fill="#222222"/>
<path d="M103.357 147.315L103.517 147.136L28.101 80.1876L27.9415 80.3672L103.357 147.315Z" fill="#222222"/>
<path d="M105.224 147.11L105.383 146.931L29.9674 79.9825L29.8079 80.1621L105.224 147.11Z" fill="#222222"/>
<path d="M104.263 144.134L104.423 143.954L29.0071 77.0059L28.8476 77.1855L104.263 144.134Z" fill="#222222"/>
</g>
<path d="M101.692 30.9281C89.6349 31.7475 80.5637 30.1283 74.731 26.1126L74.5118 25.9618C73.7405 25.4313 72.6104 25.5818 71.7785 26.3259L71.5413 26.5381C62.4003 34.7197 53.3599 39.6651 44.6753 41.2378L44.307 41.3045C43.0863 41.5256 42.0968 42.6943 42.0968 43.915V77.8044C42.0968 88.8717 51.854 97.143 71.9281 103.092L72.0793 103.137C72.6535 103.307 73.3178 103.2 73.9023 102.843L74.058 102.748C93.9156 90.6218 103.982 78.4618 103.982 66.5975V32.7469C103.982 31.6229 103.139 30.8306 102.022 30.9059L101.692 30.9281Z" fill="#F7931B"/>
<path d="M103.982 66.5967V32.7458C103.982 31.6218 103.139 30.8296 102.022 30.9049L101.692 30.9268C89.8232 31.7335 80.8477 30.1774 75.0066 26.2981L74.7311 26.1115L74.5119 25.9608C73.7406 25.4304 72.6106 25.5808 71.7788 26.3247L71.5411 26.537C62.4002 34.7186 53.3599 39.664 44.6754 41.2367L44.3068 41.3034C43.0862 41.5246 42.0968 42.6934 42.0968 43.914V77.8032C42.0968 88.8706 51.854 97.1419 71.9281 103.091L72.0793 103.136C72.6176 103.295 73.2351 103.211 73.7917 102.906L73.9023 102.842L74.0578 102.747C93.7601 90.7154 103.824 78.6509 103.98 66.8748L103.982 66.5967ZM104.321 66.5967C104.321 78.6522 94.1039 90.8991 74.2364 103.031H74.2359L74.0805 103.126C73.427 103.525 72.6632 103.658 71.9824 103.457L71.8312 103.412H71.8307C61.7731 100.431 54.2641 96.8586 49.2641 92.6201C44.2536 88.3726 41.758 83.4501 41.758 77.8032V43.914C41.758 42.5311 42.8653 41.2246 44.2458 40.9746L44.6144 40.9078C53.2169 39.35 62.2019 34.4449 71.3138 26.2893L71.551 26.077C72.4684 25.2564 73.773 25.0451 74.7056 25.6865L74.9244 25.8372H74.9249C80.6631 29.7879 89.6397 31.4108 101.669 30.5933L101.998 30.5714C103.317 30.4825 104.321 31.4341 104.321 32.7458V66.5967Z" fill="#222222"/>
<path d="M98.8044 34.3095C87.9628 35.0464 79.8062 33.5905 74.5617 29.9796L74.3646 29.8441C73.6711 29.3671 72.6549 29.5024 71.9069 30.1714L71.6936 30.3622C63.4744 37.7189 55.3455 42.1656 47.5367 43.5798L47.2055 43.6397C46.1079 43.8385 45.2181 44.8894 45.2181 45.9869V76.4591C45.2181 86.4105 53.9915 93.8477 72.0414 99.1973L72.1774 99.2374C72.6937 99.39 73.291 99.2937 73.8166 98.9728L73.9566 98.8874C91.8118 87.9841 100.863 77.0503 100.863 66.3823V35.945C100.863 34.9343 100.105 34.2219 99.1005 34.2896L98.8044 34.3095Z" fill="#F7931B"/>
<path d="M100.863 66.3826V35.9456C100.863 34.935 100.105 34.2224 99.1008 34.2899L98.8045 34.31L97.7961 34.3725C87.6228 34.9442 79.8953 33.5251 74.8099 30.1478L74.5618 29.9798L74.3647 29.8446C73.6713 29.3676 72.655 29.5027 71.9071 30.1716L71.6935 30.3624C63.4744 37.719 55.3456 42.1659 47.5368 43.58L47.2056 43.6402L47.103 43.6612C46.0531 43.9046 45.2182 44.924 45.2181 45.9872V76.4597L45.2247 76.9239C45.4946 86.6426 54.2734 93.9314 72.0413 99.1974L72.1774 99.238C72.6937 99.3905 73.291 99.294 73.8166 98.9731L73.9565 98.8877C91.5329 88.1547 100.578 77.3922 100.857 66.8827L100.863 66.3826ZM101.168 66.3826C101.168 77.2226 91.9811 88.2344 74.1167 99.1433V99.1438L73.9768 99.2292L73.9763 99.2287C73.3887 99.5874 72.7021 99.7067 72.09 99.5259L71.9544 99.4857H71.9539C62.9104 96.8055 56.1583 93.5934 51.6625 89.7823C47.1573 85.9632 44.9134 81.537 44.9133 76.4597V45.9872C44.9134 44.7438 45.9091 43.5693 47.1503 43.3444L47.4815 43.2843C55.2167 41.8835 63.2958 37.4732 71.4889 30.1399L71.7025 29.949C72.5274 29.2112 73.7001 29.021 74.5386 29.5978L74.7357 29.7335C79.8953 33.2859 87.9672 34.7451 98.7837 34.01L99.08 33.99C100.266 33.9101 101.168 34.7662 101.168 35.9456V66.3826Z" fill="#222222"/>
<path d="M74.3646 29.8441L74.5617 29.9796C76.6483 31.4163 79.1959 32.5118 82.1901 33.2638C83.2798 33.5948 83.4188 34.0873 82.8921 35.3459L47.5581 79.5718C46.1541 79.5718 45.2181 78.6358 45.2181 76.4591V45.9869C45.2181 44.8894 46.1079 43.8385 47.2055 43.6397L47.5367 43.5798C55.3455 42.1656 63.4744 37.7189 71.6936 30.3622L71.9069 30.1714C72.6549 29.5024 73.6711 29.3671 74.3646 29.8441Z" fill="#B7690C"/>
<path d="M98.685 35.349C88.199 36.0758 79.842 35.1077 74.7695 31.5462L74.5788 31.4125C73.908 30.942 72.9252 31.0755 72.2018 31.7353L71.9955 31.9235C64.0458 39.1798 56.6516 43.0979 49.0989 44.4927L48.7785 44.5519C47.717 44.7479 46.8564 45.7845 46.8564 46.8671V76.9234C46.8564 86.7389 55.342 94.0747 72.7998 99.3513L72.9314 99.3909C73.4308 99.5413 74.0085 99.4464 74.5168 99.1299L74.6522 99.0457C91.9218 88.2911 100.676 77.5065 100.676 66.9841V36.9621C100.676 35.9652 99.9429 35.2626 98.9714 35.3294L98.685 35.349Z" fill="#F7931B"/>
<path d="M100.676 66.9846V36.9628C100.676 35.9659 99.9427 35.2632 98.9713 35.33L98.6849 35.3496L97.7082 35.4126C87.8417 36.0035 79.9421 35.0293 75.0097 31.7117L74.7697 31.5466L74.5788 31.4127C73.908 30.9423 72.9253 31.0762 72.202 31.736L71.9955 31.924C64.0459 39.1803 56.6517 43.0984 49.099 44.4932L48.7786 44.5525L48.6794 44.573C47.6639 44.8131 46.8564 45.8191 46.8564 46.8678V76.9236C46.8564 86.7392 55.342 94.075 72.7997 99.3516L72.9316 99.3913C73.4309 99.5417 74.0086 99.447 74.5169 99.1305L74.652 99.046C91.6517 88.4596 100.401 77.8441 100.67 67.4782L100.676 66.9846ZM100.981 66.9846C100.981 77.5092 92.3707 88.1997 75.6184 98.796L74.8146 99.3003L74.679 99.3843C74.1083 99.7396 73.4399 99.8589 72.8427 99.6791L72.7109 99.6395C63.9629 96.9954 57.4303 93.8265 53.0806 90.0662C48.7214 86.2977 46.5516 81.9309 46.5516 76.9236V46.8678C46.5516 45.6438 47.5135 44.48 48.7224 44.2567L49.0428 44.1974C56.5243 42.8158 63.8688 38.9328 71.789 31.7034L71.995 31.5149C72.7951 30.7851 73.9373 30.5943 74.7551 31.1678L74.946 31.3017L75.1817 31.4636C80.1834 34.8274 88.3489 35.7646 98.6641 35.0496L98.9505 35.03C100.109 34.9505 100.981 35.8033 100.981 36.9628V66.9846Z" fill="#222222"/>
<path d="M84.896 49.4076C86.4758 47.7464 88.8737 47.4037 90.3435 48.6628C91.8132 49.9219 91.8155 52.321 90.3828 54.1083L90.2397 54.2791L71.628 75.5845C70.3331 77.0668 68.2774 77.42 67.0058 76.3786L56.3209 67.6281L56.1804 67.506C54.7762 66.2062 54.8231 63.7989 56.3209 62.0299C57.8187 60.2609 60.2175 59.7795 61.7716 60.9023L61.9192 61.0161L68.9403 66.7658C69.1947 66.974 69.6057 66.9034 69.8647 66.607L84.7458 49.5727L84.896 49.4076Z" fill="white"/>
<path d="M84.8962 49.4077C86.476 47.7466 88.8738 47.4036 90.3435 48.6627C91.8132 49.9218 91.8154 52.321 90.3827 54.1083L90.2395 54.279L71.628 75.5846L71.5042 75.7198C70.2051 77.0872 68.2375 77.3874 67.0057 76.3786L56.3208 67.6282L56.1805 67.506C54.7763 66.2062 54.8231 63.7987 56.3208 62.0296C57.8186 60.2608 60.2174 59.7795 61.7715 60.9021L61.9189 61.0159L68.9402 66.7656C69.1787 66.9609 69.5549 66.911 69.8144 66.6597L69.8645 66.607L84.7459 49.5728L84.8962 49.4077ZM90.1186 48.9188C88.8285 47.8136 86.6399 48.0689 85.1461 49.6396L85.0053 49.7935L70.1249 66.8281H70.1244C69.7821 67.2199 69.1611 67.3867 68.721 67.0264L61.7077 61.2827L61.5688 61.1759L61.4383 61.0873C60.0644 60.213 57.9565 60.6261 56.584 62.247C55.1677 63.9199 55.1807 66.1154 56.4149 67.2583L56.5476 67.3735L67.2249 76.1178C68.3107 77.0069 70.1564 76.75 71.3681 75.363L89.9749 54.063L90.1129 53.8979C91.4678 52.2077 91.4094 50.0248 90.1186 48.9188Z" fill="#222222"/>
<path d="M49.4917 26.4668L50.2175 27.4345L47.3143 36.3862C40.5401 34.9345 28.2013 39.2894 24.8748 45.0958C25.0857 49.1508 26.8979 53.6139 30.3788 58.1603L32.3143 52.5958L34.0078 52.112L41.5078 74.8539L39.8143 75.5797L24.8143 76.7894L26.9917 69.0474C20.9433 61.3055 19.2497 54.0474 20.9433 48.9668L23.5161 40.0152C25.8345 31.5148 35.9053 26.4668 49.4917 26.4668Z" fill="#97E764"/>
<path d="M49.5769 26.2988L49.628 26.3665L50.3538 27.334L50.4053 27.4031L47.4288 36.5807L47.2785 36.5485C43.9364 35.8324 39.1936 36.5471 34.8619 38.1743C30.5482 39.7948 26.6946 42.3007 25.0469 45.1356C25.2635 49.0604 26.9954 53.3839 30.3227 57.8056L32.1543 52.5405L32.1826 52.4584L32.2672 52.4342L34.1181 51.9056L41.7164 74.9456L39.8816 75.7322L39.856 75.7429L39.8282 75.7452L24.5862 76.9745L26.8057 69.0816C20.7829 61.3432 19.0688 54.0542 20.7824 48.9134L23.3524 39.9709L23.4682 39.5697C26.0208 31.1993 36.0958 26.2988 49.4919 26.2988H49.5769ZM21.106 49.0114L21.1041 49.0179C19.4356 54.0236 21.094 61.2239 27.1256 68.9445L27.1776 69.0107L25.0422 76.6022L39.5872 75.429L32.3088 53.1246L30.5392 58.2138L30.5377 58.2175L29.7037 60.4409L29.5176 60.195C24.5648 53.67 22.5496 47.8094 22.8738 42.8604L21.106 49.0114ZM32.529 52.7075L39.9179 75.3515L41.2991 74.76L33.8974 52.3166L32.529 52.7075ZM49.4068 26.6333C35.8861 26.6543 25.9619 31.689 23.6794 40.0576C22.234 45.3574 23.8327 52.0493 29.6021 59.7467L30.1876 58.1862C26.7293 53.6467 24.9177 49.1788 24.7058 45.1034C24.4491 40.1673 26.5404 35.8279 30.8463 32.6644C35.0922 29.5449 41.4835 27.5745 49.8902 27.278L49.4068 26.6333ZM49.9824 27.6093C41.5779 27.8945 35.2345 29.8573 31.0485 32.9326C26.9914 35.9134 24.9544 39.9427 25.0261 44.5319C26.8555 41.7816 30.6202 39.4099 34.7414 37.8618C39.0404 36.2468 43.7774 35.5092 47.1987 36.1917L49.9824 27.6093Z" fill="#222222"/>
<path d="M47.3143 36.3852L50.2175 27.4336C33.1278 27.9463 24.3676 35.3398 24.8748 45.0949C28.2014 39.2884 40.5401 34.9336 47.3143 36.3852Z" fill="#477733"/>
<path d="M39.8143 75.5788L32.3143 52.5949L34.0078 52.111L41.5078 74.853L39.8143 75.5788Z" fill="#477733"/>
<path d="M34.169 52.0599L41.7167 74.9465L39.8819 75.7326L39.7104 75.8063L32.1532 52.6468L32.0998 52.4826L32.2671 52.435L33.9606 51.9513L34.118 51.906L34.169 52.0599ZM32.5288 52.7079L39.9178 75.3524L41.299 74.7604L33.8973 52.317L32.5288 52.7079ZM47.4287 36.5816L47.2784 36.5494C43.9362 35.8332 39.1935 36.5479 34.8617 38.1752C30.5269 39.8036 26.6561 42.326 25.0222 45.178L24.7354 45.6781L24.7056 45.1043C24.449 40.1682 26.5402 35.8283 30.8462 32.6648C35.1462 29.5056 41.6467 27.5242 50.2123 27.2672L50.4519 27.2598L47.4287 36.5816ZM49.9827 27.6096C41.578 27.8949 35.2344 29.8577 31.0484 32.933C26.9912 35.9138 24.9542 39.9435 25.026 44.5328C26.8553 41.7824 30.6201 39.4108 34.7412 37.8626C39.0404 36.2476 43.7777 35.51 47.199 36.1925L49.9827 27.6096Z" fill="#222222"/>
<path d="M82.2581 99.2881L85.8871 90.3364C102.373 93.8379 115.604 91.4448 121.919 85.0139C122.315 82.9069 122.246 80.6482 121.48 77.9977L119.516 82.3526H117.823L116.129 62.03L127.5 60.8203H129.194L126.048 67.8364C128.45 74.0653 128.128 79.27 125.739 83.3203L122.177 91.0623C117.339 100.256 101.613 104.853 82.7419 100.498L82.2581 99.2881Z" fill="#97E764"/>
<path d="M129.454 60.6543L126.231 67.8432C128.616 74.0714 128.298 79.3037 125.893 83.392L122.331 91.1324L122.33 91.1366L122.328 91.1403C119.879 95.7935 114.687 99.2622 107.764 101.023C100.838 102.785 92.1604 102.844 82.7032 100.661L82.6172 100.642L82.1007 99.3504L82.0757 99.2888L82.1007 99.2268L85.7297 90.2754L85.7831 90.1443L85.9225 90.1742C94.1496 91.9215 101.558 92.196 107.691 91.2355C113.802 90.2783 118.636 88.0958 121.761 84.9338C122.12 82.9882 122.077 80.9081 121.441 78.4955L119.671 82.4217L119.626 82.5206H117.667L115.96 62.0445L115.947 61.8822L116.111 61.8649L127.482 60.6552L127.491 60.6543H129.454ZM124.761 85.0425C121.858 88.7109 117.075 91.2433 111.046 92.5356C104.189 94.0053 95.7003 93.8757 86.474 91.98L82.9744 100.379C92.3127 102.506 100.863 102.434 107.68 100.7C114.547 98.9527 119.637 95.5266 122.027 90.9864L124.761 85.0425ZM82.44 99.2898L82.7448 100.052L86.1905 91.7822L85.8715 90.8254L82.44 99.2898ZM124.617 67.8017C127.384 74.9354 126.201 80.895 122.041 85.1312C118.85 88.3806 113.925 90.5977 107.744 91.5658C101.633 92.5229 94.2838 92.2603 86.1394 90.5604L86.5004 91.6446C95.7088 93.5416 104.163 93.6688 110.974 92.2091C117.81 90.7439 122.969 87.6855 125.593 83.2371C127.938 79.2605 128.274 74.142 125.924 67.9883L124.617 67.8017ZM116.311 62.1793L117.936 81.6813L120.734 75.3867L120.883 75.7599C121.187 76.5204 121.439 77.2501 121.643 77.953C122.35 80.4 122.468 82.5211 122.176 84.4991C125.968 80.3477 126.969 74.5858 124.197 67.6571L124.171 67.5908L124.201 67.526L127.222 61.0186L116.311 62.1793ZM118.082 82.1866H119.406L121.299 77.987C121.137 77.4304 120.942 76.8561 120.715 76.2614L118.082 82.1866ZM124.603 67.4616L125.945 67.6538L128.933 60.9883H127.609L124.603 67.4616Z" fill="#222222"/>
<path d="M86.371 91.7881L82.7419 100.498C101.613 104.853 117.339 100.256 122.177 91.0623L125.739 83.3203C120.427 92.3274 104.896 95.6265 86.371 91.7881Z" fill="#477733"/>
<path d="M124.355 67.5945L126.048 67.8364L129.194 60.8203H127.5L124.355 67.5945Z" fill="#477733"/>
<path d="M119.516 82.3526H117.823L120.726 75.8203C121.028 76.5761 121.278 77.3005 121.48 77.9977L119.516 82.3526Z" fill="#477733"/>
<path d="M125.893 83.3906L122.331 91.1324L122.33 91.1366L122.328 91.1403C119.879 95.7935 114.687 99.2622 107.764 101.023C100.838 102.785 92.1604 102.844 82.7032 100.661L82.5095 100.617L82.5855 100.435L86.268 91.597L86.4059 91.6255C95.6509 93.5411 104.14 93.6737 110.974 92.2091C117.81 90.7439 122.969 87.6855 125.593 83.2371L125.893 83.3906ZM124.761 85.0425C121.858 88.7109 117.075 91.2433 111.046 92.5356C104.189 94.0053 95.7003 93.8757 86.474 91.98L82.9744 100.379C92.3127 102.506 100.863 102.434 107.68 100.7C114.547 98.9527 119.637 95.5266 122.027 90.9864L124.761 85.0425ZM120.883 75.7599C121.187 76.5204 121.439 77.2501 121.643 77.953L121.66 78.0113L119.671 82.4217L119.626 82.5206H117.563L117.668 82.2864L120.734 75.3867L120.883 75.7599ZM118.082 82.1866H119.406L121.299 77.987C121.137 77.4304 120.942 76.8561 120.715 76.2614L118.082 82.1866ZM129.454 60.6543L126.151 68.021L124.331 67.7611L124.107 67.7289L127.391 60.6543H129.454ZM124.603 67.4616L125.945 67.6538L128.933 60.9883H127.609L124.603 67.4616Z" fill="#222222"/>
<path d="M31.8708 90.3379C31.9209 90.3379 31.9614 90.3783 31.9623 90.4278C32.0094 93.0563 34.1154 95.1889 36.7558 95.3212L36.9277 95.3255C36.9769 95.3267 37.0161 95.3664 37.0161 95.415V96.1455C37.0161 96.195 36.9752 96.235 36.9251 96.2358C34.2059 96.2833 32.0103 98.4505 31.9623 101.135C31.9614 101.184 31.9209 101.225 31.8707 101.225H31.2739C31.2238 101.225 31.1833 101.184 31.1824 101.135C31.1344 98.4507 28.9389 96.2836 26.2201 96.2359C26.17 96.235 26.129 96.195 26.129 96.1455V95.4173C26.129 95.3678 26.17 95.3278 26.2201 95.3269C28.8826 95.2804 31.0428 93.2013 31.1766 90.5945L31.181 90.4252C31.1822 90.3766 31.2225 90.3379 31.2717 90.3379H31.8708Z" fill="white"/>
<path d="M31.3458 90.5977V90.6019C31.2087 93.2717 29.0154 95.4046 26.2982 95.49V96.0704C29.0484 96.1571 31.261 98.3416 31.3486 101.057H31.7961C31.8837 98.3414 34.0965 96.1568 36.847 96.0704V95.4895L36.7515 95.4872H36.7473C34.0431 95.3518 31.8827 93.1864 31.7961 90.5039H31.3486L31.3458 90.5977ZM37.1853 96.1445C37.1853 96.2878 37.0679 96.3995 36.9282 96.402C34.3003 96.4479 32.178 98.5427 32.1316 101.137C32.129 101.275 32.0159 101.391 31.8708 101.391H31.2739C31.1288 101.391 31.0157 101.275 31.0131 101.137C30.9667 98.5429 28.8446 96.4482 26.2169 96.402C26.0773 96.3995 25.9599 96.2878 25.9599 96.1445V95.4163C25.9599 95.273 26.0773 95.1613 26.2169 95.1588L26.457 95.149C28.9189 94.9878 30.8821 93.0257 31.0074 90.5851L31.0117 90.42L31.0183 90.3691C31.0448 90.2547 31.1483 90.17 31.2716 90.1699H31.8708C32.0159 90.1699 32.129 90.2858 32.1316 90.4237C32.1771 92.964 34.2125 95.0254 36.7643 95.1532H36.7638L36.932 95.1574C37.073 95.1609 37.1853 95.2747 37.1853 95.414V96.1445Z" fill="#222222"/>
<path d="M110.045 35.3145C110.11 35.3145 110.163 35.367 110.164 35.4313C110.226 38.9043 113.053 41.7112 116.564 41.799L116.618 41.7997C116.682 41.8006 116.734 41.8524 116.734 41.9161V42.8647C116.734 42.929 116.681 42.981 116.615 42.9821C113.081 43.0438 110.226 45.8612 110.164 49.3511C110.163 49.4153 110.11 49.4679 110.045 49.4679H109.269C109.204 49.4679 109.151 49.4154 109.15 49.3511C109.088 45.8782 106.261 43.071 102.75 42.983L102.697 42.9824C102.633 42.9817 102.581 42.9297 102.581 42.8659V41.9177C102.581 41.8534 102.634 41.8014 102.699 41.8003C106.217 41.7388 109.06 38.9483 109.149 35.4819L109.15 35.4293C109.15 35.3656 109.203 35.3145 109.267 35.3145H110.045Z" fill="white"/>
<path d="M109.318 35.4871C109.227 39.0272 106.336 41.8792 102.75 41.9665V42.8165L102.752 42.8169H102.755C106.34 42.9068 109.23 45.7613 109.318 49.3019H109.996C110.085 45.7596 112.977 42.9047 116.565 42.8174V41.967H116.56C112.974 41.8773 110.084 39.0232 109.996 35.4825H109.318V35.4871ZM116.903 42.8655C116.903 43.0236 116.773 43.1478 116.619 43.1505C113.175 43.2106 110.394 45.9553 110.333 49.3551C110.331 49.5078 110.205 49.6359 110.045 49.6359H109.269C109.109 49.6359 108.983 49.5078 108.981 49.3551C108.92 45.9719 106.166 43.2367 102.746 43.151V43.1505H102.695C102.538 43.1488 102.411 43.0223 102.411 42.8669V41.9189C102.411 41.7608 102.541 41.6366 102.696 41.6339C106.123 41.574 108.893 38.8556 108.98 35.4787L108.98 35.4279C108.982 35.2728 109.11 35.1485 109.267 35.1484H110.045C110.185 35.1484 110.299 35.2464 110.327 35.3733L110.333 35.4293L110.338 35.5874C110.48 38.8975 113.201 41.5487 116.568 41.6329H116.568L116.62 41.6334C116.777 41.6356 116.903 41.762 116.903 41.917V42.8655Z" fill="#222222"/>
<path d="M41.8517 24.5312C41.8918 24.5312 41.9242 24.5636 41.925 24.6032C41.9627 26.706 43.6474 28.4124 45.7598 28.5181L45.897 28.5214C45.9363 28.5224 45.9677 28.5542 45.9677 28.5931V29.177C45.9677 29.2165 45.935 29.2485 45.8949 29.2492C43.6955 29.2876 41.9244 31.06 41.9243 33.2405C41.9243 33.2408 41.9241 33.241 41.9238 33.241H41.302C41.3017 33.241 41.3015 33.2408 41.3015 33.2405C41.3014 31.1049 39.6023 29.3607 37.466 29.2537L37.3288 29.2504C37.2895 29.2494 37.2581 29.2176 37.2581 29.1787V28.5948C37.2581 28.5553 37.2908 28.5232 37.3309 28.5225C39.5062 28.4846 41.2624 26.7507 41.3009 24.6032C41.3016 24.5636 41.334 24.5312 41.3741 24.5312H41.8517Z" fill="white"/>
<path d="M41.4664 24.6973C41.3797 26.8614 39.6193 28.599 37.4272 28.6846V29.0844L37.4702 29.0858H37.4745L37.6819 29.1012C39.7544 29.3057 41.3833 30.9933 41.4664 33.073H41.7594C41.8459 30.9088 43.6064 29.1704 45.7986 29.0848V28.685L45.7556 28.6841H45.7513C43.5812 28.5756 41.8455 26.8458 41.7594 24.6973H41.4664ZM46.1369 29.1758C46.1369 29.3093 46.0275 29.4133 45.8978 29.4156C43.7906 29.4524 42.0936 31.1504 42.0935 33.2396C42.0935 33.3322 42.0176 33.4071 41.9238 33.4071H41.302C41.2082 33.4071 41.1323 33.3322 41.1323 33.2396C41.1322 31.1934 39.5042 29.5223 37.4575 29.4198V29.4193L37.3247 29.4165C37.1935 29.4133 37.0889 29.3073 37.0889 29.1777V28.5941C37.0889 28.4606 37.1983 28.3565 37.328 28.3543L37.5222 28.3464C39.5156 28.2139 41.0956 26.5925 41.1314 24.5993L41.1371 24.5522C41.1606 24.4458 41.256 24.3633 41.3743 24.3633H41.8515C41.9697 24.3633 42.0652 24.4458 42.0887 24.5522L42.0944 24.5993L42.1024 24.7869C42.2319 26.7145 43.8078 28.252 45.7683 28.3501H45.7679L45.9011 28.3533C46.0323 28.3566 46.1369 28.4626 46.1369 28.5922V29.1758Z" fill="#222222"/>
</svg>
