<svg xmlns:xlink="http://www.w3.org/1999/xlink" xmlns="http://www.w3.org/2000/svg" width="20" height="20" class="styles__Svg-jjhTut frWuVD"><defs><symbol fill="none" viewBox="0 0 20 20" id="icon-earth" xmlns="http://www.w3.org/2000/svg"><g clip-path="url(#apxa)" fill="#1E4DF2"><path opacity=".3" d="M10 .25C4.615.25.25 4.615.25 10s4.365 9.75 9.75 9.75 9.75-4.365 9.75-9.75S15.385.25 10 .25Z" fill="#1E4DF2"></path><path fill-rule="evenodd" clip-rule="evenodd" d="M9.215 3.751h8.27a9.707 9.707 0 0 1 2.164 4.84v2.818a9.76 9.76 0 0 1-6.752 7.903v-7.46L9.216 8.53V3.75ZM7.713 16.713v2.768a9.768 9.768 0 0 1-7.031-6.603h7.031v3.835Z" fill="#1E4DF2"></path></g><defs><clipPath id="apxa"><path fill="#fff" d="M0 0h20v20H0z"></path></clipPath></defs></symbol></defs><use xlink:href="#icon-earth"></use></svg>