<svg xmlns:xlink="http://www.w3.org/1999/xlink" xmlns="http://www.w3.org/2000/svg" width="130" height="32" class="styles__Svg-jjhTut ekSYMc"><defs><symbol fill="none" viewBox="0 0 163 40" id="logo-v2-light" xmlns="http://www.w3.org/2000/svg"><path d="M19.827 19.628c-.582.94-1.864 1.258-2.862.71-.998-.549-1.335-1.756-.753-2.696L27.136 0H3.597C.82 0-.907 2.883.501 5.17l17.303 28.103L29.093 15.04c.582-.94 1.864-1.258 2.862-.71.998.55 1.336 1.757.753 2.697L20.22 37.197l.685 1.111c1.389 2.256 4.803 2.256 6.192 0L47.5 5.17C48.907 2.883 47.18 0 44.403 0H31.982L19.827 19.628Z" fill="#1E4DF2"></path><path fill-rule="evenodd" clip-rule="evenodd" d="M69.645 33.5c-1.335 0-2.238-.712-2.749-1.875l-9.621-21.6C57.118 9.687 57 9.35 57 8.937c0-1.237 1.06-2.25 2.435-2.25 1.256 0 2.081.675 2.474 1.65l7.932 18.938 8.051-19.087c.314-.788 1.178-1.5 2.317-1.5 1.335 0 2.395.974 2.395 2.212 0 .338-.117.713-.235.975l-9.66 21.75c-.511 1.163-1.414 1.875-2.789 1.875h-.275Zm14.342-2.325c0-.338.118-.675.314-1.05l10.21-21.75c.55-1.162 1.532-1.875 2.907-1.875h.235c1.375 0 2.317.713 2.867 1.875l10.211 21.75c.196.337.274.675.274.975 0 1.237-.981 2.212-2.277 2.212-1.139 0-1.924-.637-2.356-1.612l-2.239-4.912H90.781l-2.317 5.062c-.393.938-1.217 1.462-2.238 1.462-1.257 0-2.239-.937-2.239-2.137Zm8.64-8.475h9.66l-4.83-10.612-4.83 10.612Zm23.601 8.1V8.975c0-1.275 1.061-2.287 2.435-2.287 1.335 0 2.396 1.012 2.396 2.287v19.95h12.449c1.217 0 2.199.938 2.199 2.1 0 1.163-.982 2.1-2.199 2.1h-14.845c-1.374 0-2.435-1.013-2.435-2.325Zm24.309.225V9.2c0-1.312 1.06-2.325 2.435-2.325h9.818c3.455 0 6.165.975 7.932 2.625 1.453 1.425 2.278 3.375 2.278 5.662v.075c0 4.2-2.553 6.75-6.244 7.838l5.262 6.338c.471.562.786 1.05.786 1.762 0 1.275-1.139 2.137-2.317 2.137-1.1 0-1.807-.487-2.357-1.2l-6.676-8.137h-6.087v7.05c0 1.275-1.06 2.288-2.395 2.288-1.375 0-2.435-1.013-2.435-2.288Zm4.83-11.137h7.069c3.456 0 5.655-1.726 5.655-4.388v-.075c0-2.813-2.12-4.35-5.694-4.35h-7.03v8.813Z" fill="#010522"></path></symbol></defs><use xlink:href="#logo-v2-light"></use></svg>